#!OML:ASF E:\emotionWalksFemale\Project 1\Capture day 1\Session 1\Female1.ASF
:FULLY-SPECIFIED
:DEGREES
2252
root 8.17423 15.1657 38.1477 -2.37054 0.133739 -356.433
lowerback 7.59446 -1.57779 4.57591
upperback 2.335 -1.63879 4.89983
thorax -1.82281 -0.824578 2.6512
lowerneck 2.5824 1.61286 0.516236
upperneck -2.77135 1.83309 -11.2385
head -1.22526 1.09365 -3.78779
rclavicle -2.42517e-014 5.40694e-014
rhumerus -37.7482 -4.1062 -70.1845
rradius 33.5838
rwrist 13.0621
rhand -4.44746 -53.8889
rfingers 7.12502
rthumb 21.3242 -82.7357
lclavicle -2.42517e-014 5.40694e-014
lhumerus -34.5717 -31.2405 110.08
lradius 40.8183
lwrist -10.9615
lhand -3.01883 -39.523
lfingers 7.12502
lthumb 22.6959 -10.8377
rfemur -6.73818 16.882 24.9117
rtibia 30.8678
rfoot -21.1609 -27.4753
rtoes 6.52945
lfemur -13.3026 0.217377 -21.118
ltibia 29.9887
lfoot -19.6014 19.4804
ltoes -7.25557
2253
root 8.16603 15.1634 38.1423 -2.33845 0.21467 -356.588
lowerback 7.57235 -1.55385 4.64429
upperback 2.38108 -1.60714 4.87939
thorax -1.76548 -0.807922 2.58708
lowerneck 2.67892 1.60749 0.485389
upperneck -2.86977 1.81623 -11.1159
head -1.27623 1.09008 -3.74182
rclavicle -2.32578e-014 2.8625e-014
rhumerus -37.4336 -4.72984 -69.7761
rradius 33.3803
rwrist 13.6411
rhand -4.197 -54.3072
rfingers 7.12502
rthumb 21.5648 -83.1265
lclavicle -2.32578e-014 2.8625e-014
lhumerus -34.5789 -31.2853 109.99
lradius 40.7339
lwrist -10.7947
lhand -3.40409 -39.3532
lfingers 7.12502
lthumb 22.3261 -10.6231
rfemur -6.74539 16.832 25.1081
rtibia 30.7887
rfoot -21.3249 -27.3837
rtoes 8.55021
lfemur -13.454 0.147753 -20.917
ltibia 30.1149
lfoot -19.7317 19.3166
ltoes -6.54793
2254
root 8.15733 15.1605 38.1324 -2.35497 0.316723 -356.823
lowerback 7.72318 -1.55007 4.79959
upperback 2.4188 -1.58002 4.87914
thorax -1.81428 -0.794458 2.50172
lowerneck 2.46026 1.62076 0.511006
upperneck -2.70782 1.85983 -11.0179
head -1.18182 1.09808 -3.70582
rclavicle 1.19271e-015 1.59028e-015
rhumerus -37.1317 -5.63978 -69.2835
rradius 33.159
rwrist 14.5456
rhand -4.12195 -54.1849
rfingers 7.12502
rthumb 21.6368 -82.9959
lclavicle 1.19271e-015 1.59028e-015
lhumerus -34.6047 -31.3447 109.887
lradius 40.6558
lwrist -10.4153
lhand -3.91132 -39.4803
lfingers 7.12502
lthumb 21.8391 -10.6927
rfemur -6.73223 16.798 25.4214
rtibia 30.7314
rfoot -21.4928 -27.4661
rtoes 9.97557
lfemur -13.5749 0.173377 -20.6179
ltibia 30.2348
lfoot -19.773 19.0889
ltoes -5.66614
2255
root 8.14808 15.1594 38.1193 -2.34181 0.467846 -356.917
lowerback 7.92212 -1.56163 4.78024
upperback 2.40286 -1.57837 4.88931
thorax -1.9405 -0.794881 2.52976
lowerneck 2.15186 1.6493 0.5537
upperneck -2.36833 1.94072 -11.0135
head -1.01151 1.11722 -3.70227
rclavicle -2.04748e-014 2.06736e-014
rhumerus -36.8698 -6.2993 -68.8168
rradius 32.941
rwrist 15.1388
rhand -4.55273 -53.9355
rfingers 7.12502
rthumb 21.2231 -82.7937
lclavicle -2.04748e-014 2.06736e-014
lhumerus -34.5935 -31.0346 109.791
lradius 40.6031
lwrist -10.3365
lhand -3.92169 -39.9352
lfingers 7.12502
lthumb 21.8292 -11.1464
rfemur -6.77683 16.8383 25.5843
rtibia 30.7074
rfoot -20.4103 -28.1778
rtoes 5.43649
lfemur -13.7404 0.177641 -20.4779
ltibia 30.3507
lfoot -19.7942 18.9111
ltoes -5.16897
2256
root 8.13913 15.156 38.1049 -2.35232 0.686582 -356.752
lowerback 8.06702 -1.58001 4.45577
upperback 2.44224 -1.61989 4.85621
thorax -1.97221 -0.815459 2.68439
lowerneck 1.81542 1.65624 0.5302
upperneck -2.02114 1.99161 -11.0075
head -0.836801 1.12085 -3.68519
rclavicle -2.18663e-015 -2.06736e-014
rhumerus -36.4391 -6.45284 -68.5576
rradius 32.676
rwrist 15.169
rhand -4.97667 -54.1653
rfingers 7.12502
rthumb 20.8158 -83.0687
lclavicle -2.18663e-015 -2.06736e-014
lhumerus -34.4178 -30.5166 109.583
lradius 40.6223
lwrist -10.6154
lhand -3.56525 -40.888
lfingers 7.12502
lthumb 22.1714 -12.1395
rfemur -6.79943 16.7542 25.4416
rtibia 30.6949
rfoot -21.0643 -28.0367
rtoes 8.57761
lfemur -13.8866 0.101585 -20.6455
ltibia 30.47
lfoot -19.5899 18.949
ltoes -6.20125
2257
root 8.13183 15.1524 38.093 -2.33122 0.89723 -356.712
lowerback 8.06075 -1.57537 4.32567
upperback 2.53789 -1.63146 4.82542
thorax -1.86678 -0.819825 2.72381
lowerneck 1.48556 1.63824 0.668094
upperneck -1.73757 2.00451 -11.1455
head -0.684267 1.10815 -3.75126
rclavicle 1.51076e-014 -3.33958e-014
rhumerus -35.9968 -6.80245 -68.2568
rradius 32.5453
rwrist 15.4785
rhand -4.9113 -54.47
rfingers 7.12502
rthumb 20.8786 -83.3665
lclavicle 1.51076e-014 -3.33958e-014
lhumerus -34.2253 -30.3412 109.391
lradius 40.6029
lwrist -10.6857
lhand -3.11005 -39.973
lfingers 7.12502
lthumb 22.6083 -11.277
rfemur -6.88853 16.5591 25.3962
rtibia 30.7192
rfoot -20.1275 -28.3201
rtoes 5.25514
lfemur -14.0469 0.0791653 -20.6815
ltibia 30.5571
lfoot -19.3354 18.95
ltoes -7.87174
2258
root 8.12518 15.1539 38.0845 -2.16606 1.02831 -356.919
lowerback 7.99219 -1.54772 4.5132
upperback 2.48532 -1.5812 4.83629
thorax -1.88856 -0.794969 2.62433
lowerneck 1.65159 1.61466 0.793334
upperneck -1.77098 1.96671 -11.2507
head -0.725248 1.09561 -3.81532
rclavicle -4.77083e-015 -7.95139e-015
rhumerus -35.7649 -7.35809 -67.8856
rradius 32.3187
rwrist 16.0532
rhand -4.8532 -54.3714
rfingers 7.12502
rthumb 20.9345 -83.2617
lclavicle -4.77083e-015 -7.95139e-015
lhumerus -34.3533 -30.5018 109.465
lradius 40.5194
lwrist -10.3255
lhand -3.8986 -39.9131
lfingers 7.12502
lthumb 21.8513 -11.1269
rfemur -7.14544 16.5175 25.5812
rtibia 30.7552
rfoot -21.2356 -28.0555
rtoes 9.95517
lfemur -14.359 0.104164 -20.431
ltibia 30.6532
lfoot -19.2245 18.8791
ltoes -8.66245
2259
root 8.11803 15.1563 38.0731 -2.01261 1.22285 -356.896
lowerback 7.92302 -1.55674 4.43553
upperback 2.47121 -1.60466 4.79287
thorax -1.86386 -0.806337 2.6227
lowerneck 1.91057 1.62077 0.700388
upperneck -2.04038 1.94266 -11.1221
head -0.861106 1.10013 -3.75962
rclavicle 1.27222e-014 -4.6118e-014
rhumerus -35.2873 -7.86573 -67.658
rradius 31.7952
rwrist 16.6255
rhand -5.03064 -54.1737
rfingers 7.12502
rthumb 20.764 -83.0827
lclavicle 1.27222e-014 -4.6118e-014
lhumerus -34.2731 -30.706 109.404
lradius 40.4436
lwrist -10.0029
lhand -4.63852 -40.0701
lfingers 7.12502
lthumb 21.1407 -11.2027
rfemur -7.34707 16.4517 25.5139
rtibia 30.7254
rfoot -21.5017 -27.9116
rtoes 11.7703
lfemur -14.682 0.0345078 -20.4382
ltibia 30.7998
lfoot -19.1036 18.8339
ltoes -8.38318
2260
root 8.11307 15.1584 38.0615 -1.84909 1.46627 -356.886
lowerback 7.87476 -1.59023 4.39503
upperback 2.45765 -1.65563 4.75711
thorax -1.85054 -0.83146 2.61158
lowerneck 1.90998 1.64832 0.707702
upperneck -2.10992 1.97351 -11.1348
head -0.881151 1.11818 -3.76681
rclavicle 3.29983e-014 -6.99722e-014
rhumerus -34.6351 -8.48462 -67.351
rradius 31.001
rwrist 17.3914
rhand -5.20157 -54.3168
rfingers 7.12502
rthumb 20.5997 -83.2437
lclavicle 3.29983e-014 -6.99722e-014
lhumerus -33.917 -30.8357 109.181
lradius 40.3509
lwrist -9.66663
lhand -4.37441 -39.7687
lfingers 7.12502
lthumb 21.3944 -10.9299
rfemur -7.5293 16.1739 25.4335
rtibia 30.6214
rfoot -21.4006 -27.7512
rtoes 12.7634
lfemur -15.0498 -0.00657422 -20.4626
ltibia 30.9876
lfoot -18.8045 18.878
ltoes -9.61247
2261
root 8.10959 15.1641 38.0536 -1.57853 1.60396 -357.105
lowerback 7.65034 -1.57659 4.61939
upperback 2.43852 -1.63644 4.77199
thorax -1.75155 -0.820844 2.493
lowerneck 1.81758 1.66428 0.963888
upperneck -2.00737 2.01044 -11.3587
head -0.825644 1.13093 -3.89276
rclavicle -1.51076e-014 -1.90833e-014
rhumerus -34.0062 -9.18205 -66.9883
rradius 30.1209
rwrist 18.0976
rhand -5.52712 -54.5188
rfingers 7.12502
rthumb 20.2869 -83.4793
lclavicle -1.51076e-014 -1.90833e-014
lhumerus -33.9736 -30.6241 109.002
lradius 40.4912
lwrist -9.60157
lhand -4.01683 -39.6291
lfingers 7.12502
lthumb 21.7378 -10.8296
rfemur -7.80897 16.0745 25.5855
rtibia 30.4866
rfoot -19.9839 -28.0561
rtoes 9.33958
lfemur -15.5241 0.0318736 -20.2304
ltibia 31.1623
lfoot -18.5997 18.8957
ltoes -10.7521
2262
root 8.10501 15.165 38.0475 -1.48732 1.65203 -357.356
lowerback 7.58855 -1.52458 4.83494
upperback 2.4499 -1.5561 4.80859
thorax -1.71044 -0.780114 2.40128
lowerneck 1.88028 1.52437 0.587334
upperneck -2.0846 1.80809 -11.0372
head -0.880154 1.03381 -3.707
rclavicle -3.18055e-015 4.77083e-014
rhumerus -33.6012 -9.65607 -66.7134
rradius 29.5582
rwrist 18.6652
rhand -5.78598 -54.6023
rfingers 7.12502
rthumb 20.0381 -83.5891
lclavicle -3.18055e-015 4.77083e-014
lhumerus -34.0275 -30.5827 108.972
lradius 40.5049
lwrist -9.39109
lhand -4.06162 -39.3933
lfingers 7.12502
lthumb 21.6948 -10.5889
rfemur -7.87102 16.0129 25.8445
rtibia 30.3351
rfoot -19.6104 -28.0506
rtoes 9.33595
lfemur -15.7718 0.025201 -19.9317
ltibia 31.3369
lfoot -18.7557 18.768
ltoes -9.56837
2263
root 8.09729 15.1667 38.0413 -1.49911 1.72037 -357.477
lowerback 7.68528 -1.47102 4.79048
upperback 2.46125 -1.47959 4.86561
thorax -1.75023 -0.742496 2.48126
lowerneck 1.98463 1.44966 0.470631
upperneck -2.11633 1.69915 -10.9804
head -0.917098 0.983932 -3.66574
rclavicle -7.95139e-015 -2.70347e-014
rhumerus -33.3664 -9.85849 -66.4822
rradius 29.4804
rwrist 19.3334
rhand -5.35744 -54.7932
rfingers 7.12502
rthumb 20.4499 -83.7363
lclavicle -7.95139e-015 -2.70347e-014
lhumerus -34.0394 -30.2931 109.018
lradius 40.4844
lwrist -9.33983
lhand -4.22592 -39.0974
lfingers 7.12502
lthumb 21.537 -10.2748
rfemur -7.79247 15.9863 26.0077
rtibia 30.1596
rfoot -19.4576 -28.0964
rtoes 9.21332
lfemur -15.9024 -0.00550748 -19.7782
ltibia 31.5278
lfoot -18.7796 18.7958
ltoes -9.13022
2264
root 8.08847 15.1717 38.0332 -1.40103 1.83263 -357.451
lowerback 7.72477 -1.4025 4.63436
upperback 2.45763 -1.39709 4.85409
thorax -1.77344 -0.701722 2.54997
lowerneck 2.18636 1.43232 0.476792
upperneck -2.34257 1.64964 -10.9671
head -1.02908 0.973025 -3.66823
rclavicle -6.36111e-015 0
rhumerus -33.135 -10.1796 -66.28
rradius 29.4846
rwrist 20.0909
rhand -4.70579 -54.9998
rfingers 7.12502
rthumb 21.0761 -83.8744
lclavicle -6.36111e-015 0
lhumerus -33.9357 -29.849 108.921
lradius 40.3682
lwrist -9.72859
lhand -4.43555 -39.5767
lfingers 7.12502
lthumb 21.3357 -10.7312
rfemur -7.85491 16.0509 25.9833
rtibia 30.0044
rfoot -20.197 -27.8634
rtoes 13.6274
lfemur -16.1833 0.000487087 -19.7803
ltibia 31.7319
lfoot -18.6768 18.7814
ltoes -8.92524
2265
root 8.08124 15.1733 38.0229 -1.2757 2.0303 -357.553
lowerback 7.755 -1.35065 4.72195
upperback 2.44967 -1.31832 4.84184
thorax -1.80142 -0.662518 2.48191
lowerneck 2.22022 1.36617 0.364207
upperneck -2.44402 1.54855 -10.8836
head -1.07515 0.92726 -3.61832
rclavicle -5.96354e-015 -3.97569e-014
rhumerus -32.953 -10.4544 -66.1609
rradius 29.524
rwrist 20.4797
rhand -4.56875 -54.9251
rfingers 7.12502
rthumb 21.2077 -83.785
lclavicle -5.96354e-015 -3.97569e-014
lhumerus -33.7649 -29.6788 108.801
lradius 40.1979
lwrist -10.1056
lhand -4.72264 -40.0821
lfingers 7.12502
lthumb 21.0599 -11.2057
rfemur -7.98665 16.0345 26.0838
rtibia 29.8715
rfoot -19.1988 -28.2119
rtoes 10.5718
lfemur -16.5398 0.00800942 -19.6473
ltibia 31.9416
lfoot -18.6387 18.5732
ltoes -9.32214
2266
root 8.07398 15.1734 38.0102 -1.15361 2.34201 -357.791
lowerback 7.80021 -1.38136 4.93112
upperback 2.45268 -1.33789 4.87318
thorax -1.82684 -0.672141 2.40093
lowerneck 1.92912 1.35977 0.325915
upperneck -2.24281 1.5667 -10.8775
head -0.957573 0.921258 -3.60163
rclavicle -7.95139e-016 -2.70347e-014
rhumerus -32.8798 -10.0805 -66.3359
rradius 30.0464
rwrist 20.1381
rhand -4.75178 -54.9719
rfingers 7.12502
rthumb 21.0319 -83.8514
lclavicle -7.95139e-016 -2.70347e-014
lhumerus -33.4755 -29.5879 108.623
lradius 40.0342
lwrist -10.1736
lhand -4.73682 -39.8686
lfingers 7.12502
lthumb 21.0463 -10.9907
rfemur -8.12279 15.9799 26.3222
rtibia 29.7406
rfoot -19.7023 -28.2019
rtoes 13.5331
lfemur -16.9277 -0.0566414 -19.3889
ltibia 32.1666
lfoot -18.6881 18.3561
ltoes -10.0945
